<?xml version="1.0" encoding="UTF-8"?>
<svg width="800" height="1100" xmlns="http://www.w3.org/2000/svg">
  <!-- Background -->
  <rect width="100%" height="100%" fill="#f5f5f5"/>
  
  <!-- Resume outline -->
  <rect x="20" y="20" width="760" height="1060" rx="8" ry="8" fill="white" stroke="#e2e8f0" stroke-width="2"/>
  
  <!-- Header section -->
  <rect x="40" y="50" width="720" height="120" rx="4" ry="4" fill="#edf2f7"/>
  <rect x="60" y="70" width="300" height="25" rx="4" ry="4" fill="#cbd5e1"/>
  <rect x="60" y="110" width="200" height="20" rx="4" ry="4" fill="#cbd5e1"/>
  
  <!-- Content sections -->
  <rect x="40" y="200" width="720" height="40" rx="4" ry="4" fill="#edf2f7"/>
  <rect x="60" y="210" width="180" height="20" rx="4" ry="4" fill="#cbd5e1"/>
  
  <!-- Experience section -->
  <rect x="40" y="270" width="720" height="140" rx="4" ry="4" fill="#f7fafc"/>
  <rect x="60" y="290" width="220" height="20" rx="4" ry="4" fill="#cbd5e1"/>
  <rect x="60" y="320" width="680" height="15" rx="4" ry="4" fill="#e2e8f0"/>
  <rect x="60" y="345" width="650" height="15" rx="4" ry="4" fill="#e2e8f0"/>
  <rect x="60" y="370" width="620" height="15" rx="4" ry="4" fill="#e2e8f0"/>
  
  <!-- Education section -->
  <rect x="40" y="440" width="720" height="140" rx="4" ry="4" fill="#f7fafc"/>
  <rect x="60" y="460" width="220" height="20" rx="4" ry="4" fill="#cbd5e1"/>
  <rect x="60" y="490" width="680" height="15" rx="4" ry="4" fill="#e2e8f0"/>
  <rect x="60" y="515" width="650" height="15" rx="4" ry="4" fill="#e2e8f0"/>
  <rect x="60" y="540" width="620" height="15" rx="4" ry="4" fill="#e2e8f0"/>
  
  <!-- Skills section -->
  <rect x="40" y="610" width="720" height="120" rx="4" ry="4" fill="#f7fafc"/>
  <rect x="60" y="630" width="180" height="20" rx="4" ry="4" fill="#cbd5e1"/>
  
  <rect x="60" y="660" width="140" height="20" rx="8" ry="8" fill="#edf2f7"/>
  <rect x="210" y="660" width="140" height="20" rx="8" ry="8" fill="#edf2f7"/>
  <rect x="360" y="660" width="140" height="20" rx="8" ry="8" fill="#edf2f7"/>
  <rect x="510" y="660" width="140" height="20" rx="8" ry="8" fill="#edf2f7"/>
  
  <rect x="60" y="690" width="140" height="20" rx="8" ry="8" fill="#edf2f7"/>
  <rect x="210" y="690" width="140" height="20" rx="8" ry="8" fill="#edf2f7"/>
  <rect x="360" y="690" width="140" height="20" rx="8" ry="8" fill="#edf2f7"/>
  
  <!-- No preview text -->
  <text x="400" y="800" font-family="Arial" font-size="24" fill="#94a3b8" text-anchor="middle">No Preview Available</text>
  <text x="400" y="835" font-family="Arial" font-size="16" fill="#94a3b8" text-anchor="middle">Select this template to see it in your resume</text>
</svg>