
      <svg width="800" height="1100" xmlns="http://www.w3.org/2000/svg">
        <!-- Background -->
        <rect width="100%" height="100%" fill="white"/>
        
        <!-- Two-column layout with angled element -->
        <rect width="280" height="100%" fill="#1e1e1e"/>
        <rect x="280" y="0" width="520" height="100%" fill="white"/>
        
        <!-- Yellow diagonal accent in top left -->
        <polygon points="0,0 280,0 0,280" fill="#ffc107" />
        
        <!-- Header section -->
        <text x="320" y="100" font-family="Arial" font-size="36" font-weight="bold">
          <tspan fill="#333333">BRIAN R. </tspan><tspan fill="#ffc107">BAXTER</tspan>
        </text>
        <text x="320" y="140" font-family="Arial" font-size="18" fill="#666666">
          Graphic &amp; Web Designer
        </text>
        
        <!-- Left column content -->
        <text x="30" y="200" font-family="Arial" font-size="20" font-weight="bold" fill="#ffc107">
          CONTACT ME
        </text>
        
        <text x="30" y="240" font-family="Arial" font-size="14" fill="white">
          +1-718-310-5658
        </text>
        <text x="30" y="270" font-family="Arial" font-size="14" fill="white">
          yourinfo@gmail.com
        </text>
        <text x="30" y="300" font-family="Arial" font-size="14" fill="white">
          www.yourwebsite.com
        </text>
        <text x="30" y="330" font-family="Arial" font-size="14" fill="white">
          Lincoln Park, MI 48146
        </text>
        
        <line x1="30" y1="360" x2="240" y2="360" stroke="#444" stroke-dasharray="2,2" />
        
        <text x="30" y="400" font-family="Arial" font-size="20" font-weight="bold" fill="#ffc107">
          REFERENCES
        </text>
        
        <text x="30" y="435" font-family="Arial" font-size="16" font-weight="bold" fill="white">
          Darwin B. Magana
        </text>
        <text x="30" y="460" font-family="Arial" font-size="14" fill="white">
          +1-970-533-3393
        </text>
        
        <text x="30" y="495" font-family="Arial" font-size="16" font-weight="bold" fill="white">
          Robert J. Belvin
        </text>
        <text x="30" y="520" font-family="Arial" font-size="14" fill="white">
          +1-908-987-5103
        </text>
        
        <line x1="30" y1="550" x2="240" y2="550" stroke="#444" stroke-dasharray="2,2" />
        
        <text x="30" y="590" font-family="Arial" font-size="20" font-weight="bold" fill="#ffc107">
          EDUCATION
        </text>
        
        <text x="30" y="625" font-family="Arial" font-size="16" font-weight="bold" fill="white">
          Stanford University
        </text>
        <text x="30" y="650" font-family="Arial" font-size="14" fill="white">
          2011 - 2013
        </text>
        
        <text x="30" y="685" font-family="Arial" font-size="16" font-weight="bold" fill="white">
          University of Chicago
        </text>
        <text x="30" y="710" font-family="Arial" font-size="14" fill="white">
          2007 - 2010
        </text>
        
        <!-- Right column content with yellow icons -->
        <!-- About Me with icon -->
        <rect x="300" y="170" width="24" height="24" fill="#ffc107" />
        <text x="340" y="190" font-family="Arial" font-size="20" font-weight="bold" fill="#ffc107">
          ABOUT ME
        </text>
        
        <rect x="320" y="205" width="450" height="10" rx="5" fill="#f0f0f0"/>
        <rect x="320" y="225" width="450" height="10" rx="5" fill="#f0f0f0"/>
        <rect x="320" y="245" width="350" height="10" rx="5" fill="#f0f0f0"/>
        
        <!-- Job Experience with icon -->
        <rect x="300" y="290" width="24" height="24" fill="#ffc107" />
        <text x="340" y="310" font-family="Arial" font-size="20" font-weight="bold" fill="#ffc107">
          JOB EXPERIENCE
        </text>
        
        <text x="320" y="345" font-family="Arial" font-size="18" font-weight="bold" fill="#444444">
          Senior Web Designer
        </text>
        <text x="320" y="370" font-family="Arial" font-size="16" fill="#666666">
          Creative Agency / Chicago
        </text>
        <text x="690" y="370" font-family="Arial" font-size="16" fill="#666666" text-anchor="end">
          2020 - Present
        </text>
        
        <rect x="320" y="385" width="450" height="10" rx="5" fill="#f0f0f0"/>
        
        <text x="320" y="430" font-family="Arial" font-size="18" font-weight="bold" fill="#444444">
          Graphic Designer
        </text>
        <text x="320" y="455" font-family="Arial" font-size="16" fill="#666666">
          Creative Market / Chicago
        </text>
        <text x="690" y="455" font-family="Arial" font-size="16" fill="#666666" text-anchor="end">
          2015 - 2020
        </text>
        
        <rect x="320" y="470" width="450" height="10" rx="5" fill="#f0f0f0"/>
        
        <text x="320" y="515" font-family="Arial" font-size="18" font-weight="bold" fill="#444444">
          Marketing Manager
        </text>
        <text x="320" y="540" font-family="Arial" font-size="16" fill="#666666">
          Manufacturing Agency / NJ
        </text>
        <text x="690" y="540" font-family="Arial" font-size="16" fill="#666666" text-anchor="end">
          2013 - 2015
        </text>
        
        <rect x="320" y="555" width="450" height="10" rx="5" fill="#f0f0f0"/>
        
        <!-- Skills with icon -->
        <rect x="300" y="585" width="24" height="24" fill="#ffc107" />
        <text x="340" y="605" font-family="Arial" font-size="20" font-weight="bold" fill="#ffc107">
          SKILLS
        </text>
        
        <!-- Skill bars -->
        <text x="320" y="640" font-family="Arial" font-size="16" fill="#333333">
          Adobe Photoshop
        </text>
        <rect x="320" y="650" width="400" height="16" rx="8" fill="#f0f0f0"/>
        <rect x="320" y="650" width="340" height="16" rx="8" fill="#ffc107"/>
        
        <text x="320" y="685" font-family="Arial" font-size="16" fill="#333333">
          HTML/CSS
        </text>
        <rect x="320" y="695" width="400" height="16" rx="8" fill="#f0f0f0"/>
        <rect x="320" y="695" width="350" height="16" rx="8" fill="#ffc107"/>
        
        <text x="320" y="730" font-family="Arial" font-size="16" fill="#333333">
          Microsoft Word
        </text>
        <rect x="320" y="740" width="400" height="16" rx="8" fill="#f0f0f0"/>
        <rect x="320" y="740" width="320" height="16" rx="8" fill="#ffc107"/>
        
        <text x="320" y="775" font-family="Arial" font-size="16" fill="#333333">
          Adobe Illustrator
        </text>
        <rect x="320" y="785" width="400" height="16" rx="8" fill="#f0f0f0"/>
        <rect x="320" y="785" width="300" height="16" rx="8" fill="#ffc107"/>
        
        <text x="320" y="820" font-family="Arial" font-size="16" fill="#333333">
          PowerPoint
        </text>
        <rect x="320" y="830" width="400" height="16" rx="8" fill="#f0f0f0"/>
        <rect x="320" y="830" width="280" height="16" rx="8" fill="#ffc107"/>
        
        <!-- Bottom accent -->
        <polygon points="800,800 800,1100 600,1100" fill="#ffc107" />
      </svg>
      