<svg width="800" height="1100" xmlns="http://www.w3.org/2000/svg">
      <!-- Background -->
      <rect width="100%" height="100%" fill="white"/>
      
      <!-- Two-column layout with dark sidebar -->
      <rect width="280" height="100%" fill="#2d2f35"/>
      <rect x="280" y="0" width="520" height="100%" fill="white"/>
      
      <!-- Left column header -->
      <rect x="20" y="50" width="240" height="50" fill="#4a90e2"/>
      <text x="30" y="85" font-family="Arial" font-size="20" font-weight="bold" fill="white">
        New Template
      </text>
      
      <!-- Left column content -->
      <text x="20" y="130" font-family="Arial" font-size="14" fill="white">
        Job Position
      </text>
      
      <text x="20" y="180" font-family="Arial" font-size="16" font-weight="bold" fill="white">
        Contact
      </text>
      
      <!-- Contact items -->
      <text x="20" y="210" font-family="Arial" font-size="12" fill="white">+600 123-4567</text>
      <text x="20" y="230" font-family="Arial" font-size="12" fill="white">email@example.com</text>
      <text x="20" y="250" font-family="Arial" font-size="12" fill="white">123 Street, City, State</text>
      
      <!-- Education section -->
      <text x="20" y="300" font-family="Arial" font-size="16" font-weight="bold" fill="white">
        Education
      </text>
      <text x="20" y="330" font-family="Arial" font-size="12" fill="white" font-weight="bold">
        DEGREE NAME
      </text>
      <text x="20" y="350" font-family="Arial" font-size="12" fill="white">
        University Name
      </text>
      
      <!-- Skills section -->
      <text x="20" y="400" font-family="Arial" font-size="16" font-weight="bold" fill="white">
        Skills
      </text>
      <text x="20" y="430" font-family="Arial" font-size="12" fill="white">• Skill 1</text>
      <text x="20" y="450" font-family="Arial" font-size="12" fill="white">• Skill 2</text>
      <text x="20" y="470" font-family="Arial" font-size="12" fill="white">• Skill 3</text>
      
      <!-- Right column section headings -->
      <text x="320" y="100" font-family="Arial" font-size="24" font-weight="bold" fill="#4a90e2">
        Profile
      </text>
      <rect x="320" y="120" width="450" height="2" fill="#ddd"/>
      
      <!-- Profile content placeholder -->
      <rect x="320" y="140" width="450" height="7" rx="3" fill="#eee"/>
      <rect x="320" y="155" width="450" height="7" rx="3" fill="#eee"/>
      <rect x="320" y="170" width="350" height="7" rx="3" fill="#eee"/>
      
      <!-- Experience heading -->
      <text x="320" y="220" font-family="Arial" font-size="24" font-weight="bold" fill="#4a90e2">
        Experience
      </text>
      <rect x="320" y="240" width="450" height="2" fill="#ddd"/>
      
      <!-- Experience item 1 -->
      <text x="320" y="270" font-family="Arial" font-size="16" font-weight="bold" fill="#333">
        Job Title
      </text>
      <text x="320" y="290" font-family="Arial" font-size="14" fill="#555">
        Company Name | 2018 - Present
      </text>
      <rect x="320" y="310" width="450" height="7" rx="3" fill="#eee"/>
      <rect x="320" y="325" width="420" height="7" rx="3" fill="#eee"/>
      <rect x="320" y="340" width="380" height="7" rx="3" fill="#eee"/>
      
      <!-- Experience item 2 -->
      <text x="320" y="380" font-family="Arial" font-size="16" font-weight="bold" fill="#333">
        Previous Job
      </text>
      <text x="320" y="400" font-family="Arial" font-size="14" fill="#555">
        Previous Company | 2015 - 2018
      </text>
      <rect x="320" y="420" width="450" height="7" rx="3" fill="#eee"/>
      <rect x="320" y="435" width="420" height="7" rx="3" fill="#eee"/>
    </svg>